<svg width="192" height="192" viewBox="0 0 192 192" xmlns="http://www.w3.org/2000/svg">
  <!-- Background gradient -->
  <defs>
    <linearGradient id="bg" x1="0%" y1="0%" x2="100%" y2="100%">
      <stop offset="0%" style="stop-color:#6200EA;stop-opacity:1" />
      <stop offset="100%" style="stop-color:#3700B3;stop-opacity:1" />
    </linearGradient>
  </defs>
  
  <!-- Background circle -->
  <circle cx="96" cy="96" r="96" fill="url(#bg)"/>
  
  <!-- Book shape -->
  <rect x="40" y="50" width="112" height="92" rx="8" fill="#FFFFFF" stroke="#E0E0E0" stroke-width="2"/>
  
  <!-- Book binding -->
  <rect x="40" y="50" width="16" height="92" rx="8" fill="#6200EA"/>
  
  <!-- Book pages lines -->
  <line x1="70" y1="70" x2="130" y2="70" stroke="#E0E0E0" stroke-width="2"/>
  <line x1="70" y1="85" x2="125" y2="85" stroke="#E0E0E0" stroke-width="2"/>
  <line x1="70" y1="100" x2="120" y2="100" stroke="#E0E0E0" stroke-width="2"/>
  
  <!-- Heart symbol -->
  <path d="M96 110 C90 104 80 104 80 114 C80 124 96 140 96 140 C96 140 112 124 112 114 C112 104 102 104 96 110 Z" fill="#E91E63"/>
  
  <!-- Pen -->
  <rect x="110" y="60" width="6" height="30" fill="#FF6B35" rx="3"/>
  <polygon points="110,90 116,90 113,95" fill="#333333"/>
  
  <!-- Sparkles -->
  <circle cx="130" cy="65" r="3" fill="#FFD700"/>
  <circle cx="75" cy="125" r="2" fill="#FFD700"/>
  <circle cx="140" cy="110" r="2" fill="#FFD700"/>
</svg>